<?xml version="1.0" standalone="no"?>
<!DOCTYPE svg PUBLIC "-//W3C//DTD SVG 20010904//EN"
 "http://www.w3.org/TR/2001/REC-SVG-20010904/DTD/svg10.dtd">
<svg version="1.0" xmlns="http://www.w3.org/2000/svg"
 width="500.000000pt" height="500.000000pt" viewBox="0 0 500.000000 500.000000"
 preserveAspectRatio="xMidYMid meet">
<metadata>
Created by potrace 1.11, written by Peter Selinger 2001-2013
</metadata>
<g transform="translate(0.000000,500.000000) scale(0.100000,-0.100000)"
fill="#000000" stroke="none">
<path d="M1510 3785 c0 -3 110 -168 245 -365 135 -198 245 -361 245 -363 0 -2
-28 -21 -62 -42 -160 -99 -298 -295 -358 -506 -43 -154 -50 -242 -50 -656 l0
-393 175 0 175 0 0 363 c0 202 5 402 11 452 27 218 82 350 195 463 40 41 77
71 81 69 4 -3 211 -307 458 -676 l450 -670 209 -1 208 0 -17 27 c-10 16 -126
187 -257 381 -131 194 -241 358 -243 365 -3 6 15 25 39 40 159 100 287 263
352 448 62 174 66 219 71 662 l5 407 -176 0 -176 0 0 -294 c0 -593 -38 -765
-205 -933 -40 -40 -77 -73 -81 -73 -5 1 -205 292 -445 648 l-435 647 -207 3
c-114 1 -207 0 -207 -3z"/>
</g>
</svg>
